<?xml version="1.0" encoding="UTF-8"?>
<svg width="1024px" height="150px" viewBox="0 0 1024 150" version="1.1" xmlns="http://www.w3.org/2000/svg" xmlns:xlink="http://www.w3.org/1999/xlink">
    <!-- Generator: Sketch 58 (84663) - https://sketch.com -->
    <title>water</title>
    <desc>Created with Sketch.</desc>
    <defs>
        <radialGradient cx="50%" cy="-11.4770475%" fx="50%" fy="-11.4770475%" r="624.708482%" gradientTransform="translate(0.500000,-0.114770),scale(0.146167,1.000000),rotate(0.379305),scale(1.000000,0.327732),translate(-0.500000,0.114770)" id="radialGradient-1">
            <stop stop-color="#8E62CE" offset="0%"></stop>
            <stop stop-color="#4811FF" offset="100%"></stop>
        </radialGradient>
        <path d="M0,150 L0,0.335437268 L6.79081017,4.45822471 L12.5018234,3.20289368 L15.9815105,3.92117004 L19.3829695,3.20289368 L23.2194939,2.46579238 L25.366793,3.20289368 L30.8511279,3.92117004 L41.1119797,3.20289368 L49.1644559,3.92117004 L54.699409,3.20289368 L59.5712997,3.1884813 C60.7491371,3.67943246 61.7592469,3.92366204 62.601629,3.92117004 C63.4440112,3.91867804 64.6853603,3.66778803 66.3256763,3.1685 L70.2416457,1.7392803 L76.497617,2.46579238 L81.1434407,3.124665 L86.3951319,4.45822471 L91.4331217,3.20289368 L96.8140226,3.92117004 C98.5136258,4.97249053 99.7634183,5.49660387 100.5634,5.49351008 C101.363382,5.49041629 102.522841,5.76161046 104.041778,6.3070926 L107.018324,5.49351008 L111.616892,3.92117004 L117.036074,3.20289368 L120.608894,3.92117004 L124.436179,4.45822471 L128.488918,5.49351008 L133.540919,4.45822471 L137.177556,5.49351008 C138.100478,6.040724 138.976766,6.31191817 139.806422,6.3070926 C140.310518,6.3041606 140.961088,6.1983778 141.758135,5.98974419 C142.101308,5.8999159 143.234638,5.73450453 145.158126,5.49351008 L149.097558,5.98974419 C150.66539,6.26695577 151.814826,6.37273858 152.545866,6.3070926 C153.276906,6.24144662 153.969507,5.97025245 154.623668,5.49351008 L158.098659,4.45822471 L160.93519,5.49351008 L163.569083,5.98974419 L167.142686,6.3070926 L170.515972,5.98974419 C171.744449,6.26173377 172.637495,6.36751657 173.195111,6.3070926 C173.752726,6.24666862 174.38616,5.97547445 175.095412,5.49351008 L177.474076,6.3070926 L180.862057,5.98974419 L184.18507,6.3070926 L187.941588,5.49351008 C188.587276,5.9414415 189.135505,6.21263567 189.586273,6.3070926 C190.037041,6.40154952 190.783008,6.40154952 191.824173,6.3070926 L195.646432,5.49351008 L198.523567,5.49351008 L200.867426,6.3070926 L204.535774,5.49351008 L207.917567,5.98974419 L212.320667,5.49351008 L213.968445,6.3070926 L218.613868,5.45351795 L220.662812,6.3070926 L224.848966,5.49351008 L231.715988,6.8532067 C235.074057,6.77749118 237.485002,6.59545314 238.948823,6.3070926 C240.412644,6.01873205 241.740431,5.58451313 242.932182,5.00443585 C244.510593,5.20880521 245.648923,5.37182995 246.347172,5.49351008 C247.045421,5.61519021 248.201248,5.61519021 249.814653,5.49351008 L254.678571,5.98974419 C256.242755,5.62022942 257.494357,5.45481805 258.433376,5.49351008 C259.372395,5.53220211 260.688042,5.80339628 262.380317,6.3070926 L268.807942,5.49351008 C269.67933,5.93835919 270.442179,6.20955336 271.09649,6.3070926 C271.7508,6.40463183 272.807169,6.40463183 274.265596,6.3070926 L277.702436,5.98974419 L280.807999,5.00443585 L284.360372,5.98974419 L287.747232,6.8532067 L291.191606,6.3070926 C291.916486,5.85703549 292.497246,5.58584132 292.933887,5.49351008 C293.370527,5.40117885 294.072261,5.40117885 295.039089,5.49351008 L299.490104,5.00443585 L307.79488,4.45822471 L320.904091,5.98974419 C326.471917,6.67981416 330.140476,6.96763499 331.909769,6.8532067 C333.679061,6.7387784 336.041263,6.12252145 338.996375,5.00443585 L354.488074,6.8532067 L370.132191,5.00443585 L380.473878,5.98974419 L397.394818,5.00443585 L403.715119,6.3070926 L412.663429,5.00443585 L416.585138,5.98974419 L419.886103,5.00443585 L424.5,4.45822471 L428.192574,5.45351795 L436.792704,5.37964146 L452.079873,6.3070926 L472.861872,3.92117004 C475.33621,4.83856402 477.651826,5.36267737 479.808718,5.49351008 C481.96561,5.62434279 485.179056,5.43561111 489.449055,4.92731502 L504.828335,6.8532067 L513.313686,4.72231404 L523.304035,3.92117004 L532.11364,5.98974419 L542.526912,4.47136778 L552.84659,5.98974419 L560.253902,4.31909011 L575.050445,6.3070926 L585.556153,4.92731502 L592.218723,6.07873056 L602.559894,5.00443585 L605.385148,6.3070926 L618.642275,5.98974419 L624.247868,4.7641618 L627.247208,4.73093308 L633.423574,6.3070926 L655.861065,4.47136778 L677.306587,5.63615033 L705.672463,2.46579238 L717.711835,5.00443585 L730.01596,3.20289368 L737.015546,3.20289368 L741.436954,2.22644436 L747.001242,0.335437268 L753.056263,3.20289368 L757.97311,2.11577883 L769.056987,2.04160179 L798.062039,3.20289368 L813.240318,1.74591205 L825.059914,2.46579238 C828.722125,1.05896553 831.555115,0.348847165 833.558884,0.335437268 C835.562653,0.322027372 837.999679,0.730550006 840.869962,1.56100517 L851.011965,2.46579238 C855.418715,1.06006299 858.705968,0.349944616 860.873723,0.335437268 C863.041478,0.320929921 867.686773,0.320929921 874.809607,0.335437268 L885.436417,1.56100517 L892.966889,1.49439961 L898.893995,0.335437268 L902.697005,1.40833863 L911.859683,1.20065356 L920.092062,2.11577883 L926.178028,1.20065356 L932.21234,1.40833863 L940.732955,2.04160179 C941.561913,2.18472074 943.100814,2.24633493 945.349656,2.22644436 C947.598499,2.20655378 949.968712,1.57621809 952.460296,0.335437268 L959.495436,0.905967573 L967.130961,0.838432846 L971.156623,0.335437268 L974.475331,0.773473317 L980.782553,1.49439961 L991.290845,3.1685 C993.874967,2.09985657 996.012101,1.34567909 997.702246,0.905967573 C999.139498,0.532049254 1000.50946,1.881888 1002.15594,1.7392803 C1003.4325,1.62871324 1005.91168,0.331514161 1007.59752,0.335437268 C1009.31791,0.339440767 1011.08915,1.99254493 1013.23578,2.11577883 C1014.6568,2.19735685 1016.42188,0.520810956 1019.19553,0.773473317 C1020.16464,0.861753192 1021.76613,0.715741176 1024,0.335437268 L1024,150 L0,150 Z" id="path-2"></path>
        <filter x="-1.0%" y="-2.1%" width="101.9%" height="104.3%" filterUnits="objectBoundingBox" id="filter-4">
            <feGaussianBlur stdDeviation="1" in="SourceGraphic"></feGaussianBlur>
        </filter>
    </defs>
    <g id="Page-1" stroke="none" stroke-width="1" fill="none" fill-rule="evenodd">
        <g id="Desktop" transform="translate(0.000000, -539.000000)">
            <g id="water" transform="translate(0.000000, 538.335437)">
                <g id="Path-6" transform="translate(0.000000, 0.664563)">
                    <mask id="mask-3" fill="white">
                        <use xlink:href="#path-2"></use>
                    </mask>
                    <use id="Mask" fill="url(#radialGradient-1)" xlink:href="#path-2"></use>
                    <path d="M674,138.253001 L656.241157,129.781962 L642.374677,100.632251 L630.501167,100.632251 L621.197509,76.264196 L592.526202,76.264196 L580.866432,58.2271563 L561.842722,58.2271563 L551.938181,51.9256499 L543.86312,38.8068596 C540.783093,23.0489832 538.7883,12.6488884 537.878741,7.6065752 C537.339078,4.61485286 529.464053,5.39374673 529.226475,7.6065752 C528.668906,12.7998412 526.560537,23.199936 522.901368,38.8068596 L518.865127,38.7164491 C517.472204,38.7164491 516.775743,37.7233175 516.775743,35.7370544 C515.26865,31.0938047 514.043584,23.4563136 514.378086,16.9441475 C514.448456,15.5741595 519.157003,16.2200443 518.865127,14.7676299 C518.276516,11.838626 516.695427,8.80096636 514.378086,3.52333708 C512.435022,-0.90189505 505.285525,-1.43931752 503.821879,3.52333708 C502.66564,7.44369667 500.915856,12.4114638 500.655146,14.7676299 C500.422916,16.8664117 505.240088,15.0302733 505.565492,16.9441475 C506.559475,22.7902783 504.614811,31.6162249 503.821879,35.7370544 C503.657486,36.5914018 503.657486,37.6146703 503.821879,38.8068596 L500.655146,39.2162415 L494.973925,51.9256499 L483.219892,51.9256499 L463.749872,73.5237199 L463.749872,86.8361061 L437.728021,98.0258931 L437.728021,107.998118 L436.598409,107.998118 L436.598409,84.7526306 L423.089312,84.7526306 L423.089312,113.006255 L420.682311,113.006255 L419.13881,90.2320633 C416.008299,83.0691531 414.072446,79.487698 413.331252,79.487698 C412.603894,79.487698 410.124716,90.6605503 405.893718,113.006255 C401.608513,119.484238 388.018507,126.181436 365.123702,133.09785 C342.228897,140.014264 445.187663,141.732647 674,138.253001 Z" fill-opacity="0.19807146" fill="#2A2A2A" filter="url(#filter-4)" mask="url(#mask-3)" transform="translate(518.000000, 70.000000) scale(-1, -1) translate(-518.000000, -70.000000) "></path>
                </g>
            </g>
        </g>
    </g>
</svg>