<?xml version="1.0" encoding="UTF-8"?>
<svg width="411px" height="151px" viewBox="0 0 411 151" version="1.1" xmlns="http://www.w3.org/2000/svg" xmlns:xlink="http://www.w3.org/1999/xlink">
    <!-- Generator: Sketch 58 (84663) - https://sketch.com -->
    <title>boat</title>
    <desc>Created with Sketch.</desc>
    <g id="Page-1" stroke="none" stroke-width="1" fill="none" fill-rule="evenodd">
        <g id="Desktop" transform="translate(-470.000000, -452.000000)">
            <g id="boat" transform="translate(472.000000, 452.000000)">
                <path d="M339.718853,150.773604 C270.852178,150.773604 186.814789,150.773604 87.6066872,150.773604 C63.0737381,145.579929 48.5844302,134.110298 44.1387633,116.364712 C37.4702631,89.746333 58.5093523,99.5344798 48.6845284,73.1622782 C46.2740956,66.6920941 40.6187682,73.1622782 34.9274169,67.3718718 C29.2360656,61.5814655 32.0115395,52.6161451 37.2256865,49.7520833 C42.4398335,46.8880215 49.1646413,48.3263475 53.7038619,55.6924835 C61.2599023,67.9542409 58.9517661,81.6538302 61.1363497,83.2763658 C66.3817774,87.172254 117.484099,116.364712 224.038784,116.364712 C330.593469,116.364712 383.501222,91.572717 388.476547,83.2763658 C390.723271,79.5299556 388.85292,68.8398259 382.865494,51.2059767 C380.013562,42.8066199 373.057683,20.3099814 373.057683,14.9243338 C373.057683,9.53868623 374.704232,4.11651261 380.913112,1.45011191 C387.121993,-1.21628879 392.418412,-0.173353865 395.04014,4.31313149 C397.661868,8.79961684 397.661868,14.9243338 395.04014,19.1683485 C393.292322,21.9976915 389.034831,22.7021473 382.267667,21.2817157 C400.486294,66.0149018 409.063738,94.200578 408,105.838744 C406.404393,123.295994 388.476547,146.37982 339.718853,150.773604 Z" id="Path-3" fill="#2A2A2A"></path>
                <path d="M42.1579877,39.7679863 L42.1579877,51.5681505" id="Path" stroke="#2A2A2A" stroke-width="5"></path>
                <path d="M49.8572471,34.409425 C50.9078063,35.5183377 51.1664924,36.4346023 50.6333054,37.1582188 C49.8335248,38.2436437 46.1782197,39.7679863 42.1579877,39.7679863 C38.1377557,39.7679863 35.7028003,38.6156513 31.7743622,34.409425 C27.8459241,30.2031987 25.5092354,20.5346278 21.6204717,17.8866254 C17.7317079,15.2386229 8.55104191,13.1862544 3.63971058,20.0533042 C-1.27162075,26.9203539 -0.0744927656,32.8656222 3.63971058,37.1582188 C7.35391393,41.4508155 15.4401308,41.4508155 19.6242951,37.1582188 C23.8084594,32.8656222 19.4081538,26.076259 17.6120363,27.1921785" id="Path-2" stroke="#2A2A2A" stroke-width="3"></path>
                <path d="M8.98954864,40.3776663 L6.83855566,45.6680684 C3.48263941,43.7552487 1.33302271,43.3026041 0.389705561,44.3101347 C-1.02527016,45.8214307 2.24861267,52.7881811 3.64065029,57.39235 C4.56867537,60.4617959 5.63464382,63.2109216 6.83855566,65.6397271 L16.0178121,65.6397271 C17.7622382,62.9130947 19.0643125,60.163969 19.924035,57.39235 C21.2136187,53.2349215 24.0983107,45.6680684 22.6339924,44.3101347 C21.6577801,43.4048456 19.4523867,43.8574902 16.0178121,45.6680684 L14.0128843,40.3776663 L8.98954864,40.3776663 Z" id="Path-5" fill="#2A2A2A"></path>
            </g>
        </g>
    </g>
</svg>